<?xml version="1.0" encoding="UTF-8" standalone="no"?>
<!DOCTYPE svg PUBLIC "-//W3C//DTD SVG 1.1//EN"
 "http://www.w3.org/Graphics/SVG/1.1/DTD/svg11.dtd">
<!-- Generated by graphviz version 2.46.0 (20210119.1425)
 -->
<!-- Title: dependencies Pages: 1 -->
<svg width="1424pt" height="284pt"
 viewBox="0.00 0.00 1424.00 284.00" xmlns="http://www.w3.org/2000/svg" xmlns:xlink="http://www.w3.org/1999/xlink">
<g id="graph0" class="graph" transform="scale(1 1) rotate(0) translate(4 280)">
<title>dependencies</title>
<polygon fill="white" stroke="transparent" points="-4,4 -4,-280 1420,-280 1420,4 -4,4"/>
<text text-anchor="start" x="687.01" y="-42.4" font-family="sans-serif" font-weight="bold" font-size="14.00">Legend</text>
<polygon fill="#ffffb3" stroke="transparent" points="474,-10 474,-30 494,-30 494,-10 474,-10"/>
<text text-anchor="start" x="497.63" y="-15.4" font-family="sans-serif" font-size="14.00"> &#160;Declarations</text>
<polygon fill="#8dd3c7" stroke="transparent" points="587,-10 587,-30 607,-30 607,-10 587,-10"/>
<text text-anchor="start" x="610.73" y="-15.4" font-family="sans-serif" font-size="14.00"> &#160;Module</text>
<polygon fill="#80b1d3" stroke="transparent" points="673,-10 673,-30 693,-30 693,-10 673,-10"/>
<text text-anchor="start" x="696.78" y="-15.4" font-family="sans-serif" font-size="14.00"> &#160;Bootstrap</text>
<polygon fill="#fdb462" stroke="transparent" points="770,-10 770,-30 790,-30 790,-10 770,-10"/>
<text text-anchor="start" x="793.67" y="-15.4" font-family="sans-serif" font-size="14.00"> &#160;Providers</text>
<polygon fill="#fb8072" stroke="transparent" points="866,-10 866,-30 886,-30 886,-10 866,-10"/>
<text text-anchor="start" x="889.73" y="-15.4" font-family="sans-serif" font-size="14.00"> &#160;Exports</text>
<g id="clust1" class="cluster">
<title>cluster_AppModule</title>
<polygon fill="none" stroke="black" stroke-dasharray="1,5" points="8,-70 8,-268 1408,-268 1408,-70 8,-70"/>
</g>
<g id="clust12" class="cluster">
<title>cluster_AppModule_imports</title>
<polygon fill="none" stroke="black" points="1256,-78 1256,-130 1400,-130 1400,-78 1256,-78"/>
</g>
<g id="clust2" class="cluster">
<title>cluster_AppModule_declarations</title>
<polygon fill="none" stroke="black" points="16,-78 16,-130 1248,-130 1248,-78 16,-78"/>
</g>
<g id="clust14" class="cluster">
<title>cluster_AppModule_bootstrap</title>
<polygon fill="none" stroke="black" points="628,-208 628,-260 752,-260 752,-208 628,-208"/>
</g>
<!-- AlertasComponent -->
<g id="node1" class="node">
<title>AlertasComponent</title>
<polygon fill="#ffffb3" stroke="black" points="1239.75,-122 1118.25,-122 1118.25,-86 1239.75,-86 1239.75,-122"/>
<text text-anchor="middle" x="1179" y="-99.8" font-family="Times,serif" font-size="14.00">AlertasComponent</text>
</g>
<!-- AppModule -->
<g id="node10" class="node">
<title>AppModule</title>
<polygon fill="#8dd3c7" stroke="black" points="731.66,-187 728.66,-191 707.66,-191 704.66,-187 648.34,-187 648.34,-151 731.66,-151 731.66,-187"/>
<text text-anchor="middle" x="690" y="-164.8" font-family="Times,serif" font-size="14.00">AppModule</text>
</g>
<!-- AlertasComponent&#45;&gt;AppModule -->
<g id="edge1" class="edge">
<title>AlertasComponent&#45;&gt;AppModule</title>
<path fill="none" stroke="black" d="M1179,-122.13C1179,-142.57 1179,-173 1179,-173 1179,-173 741.69,-173 741.69,-173"/>
<polygon fill="black" stroke="black" points="741.69,-169.5 731.69,-173 741.69,-176.5 741.69,-169.5"/>
</g>
<!-- AppComponent -->
<g id="node2" class="node">
<title>AppComponent</title>
<polygon fill="#ffffb3" stroke="black" points="1099.94,-122 994.06,-122 994.06,-86 1099.94,-86 1099.94,-122"/>
<text text-anchor="middle" x="1047" y="-99.8" font-family="Times,serif" font-size="14.00">AppComponent</text>
</g>
<!-- AppComponent&#45;&gt;AppModule -->
<g id="edge2" class="edge">
<title>AppComponent&#45;&gt;AppModule</title>
<path fill="none" stroke="black" d="M1047,-122.27C1047,-140.56 1047,-166 1047,-166 1047,-166 742,-166 742,-166"/>
<polygon fill="black" stroke="black" points="742,-162.5 732,-166 742,-169.5 742,-162.5"/>
</g>
<!-- CadastrarComponent -->
<g id="node3" class="node">
<title>CadastrarComponent</title>
<polygon fill="#ffffb3" stroke="black" points="976.47,-122 841.53,-122 841.53,-86 976.47,-86 976.47,-122"/>
<text text-anchor="middle" x="909" y="-99.8" font-family="Times,serif" font-size="14.00">CadastrarComponent</text>
</g>
<!-- CadastrarComponent&#45;&gt;AppModule -->
<g id="edge3" class="edge">
<title>CadastrarComponent&#45;&gt;AppModule</title>
<path fill="none" stroke="black" d="M909,-122.01C909,-138.05 909,-159 909,-159 909,-159 741.71,-159 741.71,-159"/>
<polygon fill="black" stroke="black" points="741.71,-155.5 731.71,-159 741.71,-162.5 741.71,-155.5"/>
</g>
<!-- DelecaoComponent -->
<g id="node4" class="node">
<title>DelecaoComponent</title>
<polygon fill="#ffffb3" stroke="black" points="823.69,-122 696.31,-122 696.31,-86 823.69,-86 823.69,-122"/>
<text text-anchor="middle" x="760" y="-99.8" font-family="Times,serif" font-size="14.00">DelecaoComponent</text>
</g>
<!-- DelecaoComponent&#45;&gt;AppModule -->
<g id="edge4" class="edge">
<title>DelecaoComponent&#45;&gt;AppModule</title>
<path fill="none" stroke="black" d="M714.12,-122.11C714.12,-122.11 714.12,-140.99 714.12,-140.99"/>
<polygon fill="black" stroke="black" points="710.62,-140.99 714.12,-150.99 717.62,-140.99 710.62,-140.99"/>
</g>
<!-- EntrarComponent -->
<g id="node5" class="node">
<title>EntrarComponent</title>
<polygon fill="#ffffb3" stroke="black" points="678.31,-122 561.69,-122 561.69,-86 678.31,-86 678.31,-122"/>
<text text-anchor="middle" x="620" y="-99.8" font-family="Times,serif" font-size="14.00">EntrarComponent</text>
</g>
<!-- EntrarComponent&#45;&gt;AppModule -->
<g id="edge5" class="edge">
<title>EntrarComponent&#45;&gt;AppModule</title>
<path fill="none" stroke="black" d="M663.16,-122.11C663.16,-122.11 663.16,-140.99 663.16,-140.99"/>
<polygon fill="black" stroke="black" points="659.66,-140.99 663.16,-150.99 666.66,-140.99 659.66,-140.99"/>
</g>
<!-- InicioComponent -->
<g id="node6" class="node">
<title>InicioComponent</title>
<polygon fill="#ffffb3" stroke="black" points="543.99,-122 430.01,-122 430.01,-86 543.99,-86 543.99,-122"/>
<text text-anchor="middle" x="487" y="-99.8" font-family="Times,serif" font-size="14.00">InicioComponent</text>
</g>
<!-- InicioComponent&#45;&gt;AppModule -->
<g id="edge6" class="edge">
<title>InicioComponent&#45;&gt;AppModule</title>
<path fill="none" stroke="black" d="M487,-122.01C487,-138.05 487,-159 487,-159 487,-159 637.94,-159 637.94,-159"/>
<polygon fill="black" stroke="black" points="637.94,-162.5 647.94,-159 637.94,-155.5 637.94,-162.5"/>
</g>
<!-- MenuComponent -->
<g id="node7" class="node">
<title>MenuComponent</title>
<polygon fill="#ffffb3" stroke="black" points="411.99,-122 298.01,-122 298.01,-86 411.99,-86 411.99,-122"/>
<text text-anchor="middle" x="355" y="-99.8" font-family="Times,serif" font-size="14.00">MenuComponent</text>
</g>
<!-- MenuComponent&#45;&gt;AppModule -->
<g id="edge7" class="edge">
<title>MenuComponent&#45;&gt;AppModule</title>
<path fill="none" stroke="black" d="M355,-122.27C355,-140.56 355,-166 355,-166 355,-166 638.25,-166 638.25,-166"/>
<polygon fill="black" stroke="black" points="638.25,-169.5 648.25,-166 638.25,-162.5 638.25,-169.5"/>
</g>
<!-- RodapeComponent -->
<g id="node8" class="node">
<title>RodapeComponent</title>
<polygon fill="#ffffb3" stroke="black" points="280.1,-122 155.9,-122 155.9,-86 280.1,-86 280.1,-122"/>
<text text-anchor="middle" x="218" y="-99.8" font-family="Times,serif" font-size="14.00">RodapeComponent</text>
</g>
<!-- RodapeComponent&#45;&gt;AppModule -->
<g id="edge8" class="edge">
<title>RodapeComponent&#45;&gt;AppModule</title>
<path fill="none" stroke="black" d="M218,-122.13C218,-142.57 218,-173 218,-173 218,-173 638.11,-173 638.11,-173"/>
<polygon fill="black" stroke="black" points="638.11,-176.5 648.11,-173 638.11,-169.5 638.11,-176.5"/>
</g>
<!-- TemaComponent -->
<g id="node9" class="node">
<title>TemaComponent</title>
<polygon fill="#ffffb3" stroke="black" points="137.7,-122 24.3,-122 24.3,-86 137.7,-86 137.7,-122"/>
<text text-anchor="middle" x="81" y="-99.8" font-family="Times,serif" font-size="14.00">TemaComponent</text>
</g>
<!-- TemaComponent&#45;&gt;AppModule -->
<g id="edge9" class="edge">
<title>TemaComponent&#45;&gt;AppModule</title>
<path fill="none" stroke="black" d="M81,-122.01C81,-144.49 81,-180 81,-180 81,-180 638.14,-180 638.14,-180"/>
<polygon fill="black" stroke="black" points="638.14,-183.5 648.14,-180 638.14,-176.5 638.14,-183.5"/>
</g>
<!-- AppComponent  -->
<g id="node12" class="node">
<title>AppComponent </title>
<polygon fill="#80b1d3" stroke="black" points="744.44,-252 635.56,-252 635.56,-216 744.44,-216 744.44,-252"/>
<text text-anchor="middle" x="690" y="-229.8" font-family="Times,serif" font-size="14.00">AppComponent </text>
</g>
<!-- AppModule&#45;&gt;AppComponent  -->
<g id="edge11" class="edge">
<title>AppModule&#45;&gt;AppComponent </title>
<path fill="none" stroke="black" stroke-dasharray="1,5" d="M690,-187.11C690,-187.11 690,-205.99 690,-205.99"/>
<polygon fill="black" stroke="black" points="686.5,-205.99 690,-215.99 693.5,-205.99 686.5,-205.99"/>
</g>
<!-- AppRoutingModule -->
<g id="node11" class="node">
<title>AppRoutingModule</title>
<polygon fill="#8dd3c7" stroke="black" points="1392.27,-122 1389.27,-126 1368.27,-126 1365.27,-122 1263.73,-122 1263.73,-86 1392.27,-86 1392.27,-122"/>
<text text-anchor="middle" x="1328" y="-99.8" font-family="Times,serif" font-size="14.00">AppRoutingModule</text>
</g>
<!-- AppRoutingModule&#45;&gt;AppModule -->
<g id="edge10" class="edge">
<title>AppRoutingModule&#45;&gt;AppModule</title>
<path fill="none" stroke="black" d="M1328,-122.01C1328,-144.49 1328,-180 1328,-180 1328,-180 741.86,-180 741.86,-180"/>
<polygon fill="black" stroke="black" points="741.86,-176.5 731.86,-180 741.86,-183.5 741.86,-176.5"/>
</g>
</g>
</svg>
